<svg xmlns="http://www.w3.org/2000/svg" version="1.1" viewBox="-5.0 -10.0 110.0 135.0">
 <path d="m80.062 65.906c-0.48828-0.34766-1.0156-0.6875-1.5898-1.0312-4.7539 3.8477-11.465 4.1289-16.52 0.69141-0.36328 0.96875-0.71875 1.9375-1.0156 2.7891v0.003906c-0.38672 1.1797-0.69531 2.3906-0.91406 3.6133-1.0547 5.2734-5.0703 9.6016-10.195 10.992l-0.39062 0.10156-0.003906-0.003906c-4.8242 1.2383-9.9453-0.20312-13.41-3.7812-1.7891-1.7891-3.0742-4.0156-3.7227-6.457-0.64844-2.4453-0.63672-5.0156 0.027344-7.457l0.60547-2.2617c-2.6016-0.074219-5.1172-0.92969-7.2266-2.4492-2.8164 1.5273-4.9648 2.8203-6.5664 3.9102-5.8008 3.9336-6.082 9.2227-6.3242 13.891-0.039062 0.73438-0.37109 3.6914-0.39062 4.3516v-0.003906c-0.082031 2.9531 1.5586 5.6836 4.1992 7h0.003906c5.7695 2.8164 11.836 4.9766 18.086 6.4453l0.10156 0.023438c0.69531 0.15625 2.7461 0.58594 2.9297 0.63281 3.8906 0.96094 10.453 1.375 11.574 1.4141 1.2852 0.070313 2.5664 0.10156 3.8438 0.10156 10.344 0.027344 20.57-2.1992 29.969-6.5234 2.6797-1.2188 4.4102-3.875 4.4492-6.8125 0.058594-9.3281-2.3984-15.602-7.5195-19.18z"/>
 <path d="m43.18 42.25c0.32031 0.19531 0.6875 0.29688 1.0625 0.29297 0.57812-0.023438 1.1445-0.18359 1.6484-0.46875 0.55859-0.28906 0.77734-0.97266 0.49219-1.5273-0.28906-0.55859-0.97266-0.77734-1.5312-0.49219-0.13281 0.074218-0.27734 0.13672-0.42187 0.17969-0.007813-0.074219-0.011719-0.15234-0.011719-0.23047 0.003906-0.625-0.5-1.1367-1.1289-1.1445-0.625-0.003906-1.1367 0.50391-1.1406 1.1289-0.007813 1.0469 0.35937 1.8477 1.0312 2.2617z"/>
 <path d="m43.93 47.586c0.24219 0.035156 0.48047 0.050781 0.72266 0.050781 1.25 0 2.5273-0.48047 3.8125-1.4297l0.003906-0.003906c0.50391-0.37109 0.60938-1.082 0.23828-1.5859-0.375-0.50391-1.082-0.60938-1.5898-0.23828-2.7188 2.0117-4.2031 0.39062-4.4766 0.035156h0.003906c-0.375-0.50391-1.0859-0.60937-1.5898-0.23437-0.50391 0.375-0.60547 1.0859-0.23438 1.5898 0.77344 0.97266 1.8828 1.6211 3.1094 1.8164z"/>
 <path d="m50.277 29.57c-0.52734 0.23047-0.80078 0.82031-0.63281 1.3711 0.17188 0.55469 0.73047 0.88672 1.293 0.77734-0.03125 0.17969-0.054688 0.35938-0.0625 0.53906-0.085938 1.6172 0.75 2.8828 1.9414 2.9453h0.089844c0.64062 0 1.2305-0.35938 1.6328-0.99219 0.28516-0.47266 0.45313-1.0039 0.5-1.5508 0.28516-0.03125 0.54688-0.17188 0.73438-0.39062 0.39844-0.48047 0.33203-1.1992-0.14844-1.5977-2.5703-2.125-5.2344-1.1445-5.3477-1.1016z"/>
 <path d="m50.453 27.773c0.03125 0 3.3359-0.92578 5.3867 1.6641 0.39062 0.48828 1.1016 0.57031 1.5938 0.18359 0.49219-0.39062 0.57422-1.1055 0.18359-1.5977-2.9844-3.7656-7.5977-2.4883-7.793-2.4375-0.60156 0.17187-0.94922 0.80469-0.77734 1.4062 0.17578 0.60156 0.80469 0.94922 1.4062 0.77344z"/>
 <path d="m29.422 60.117c1.2773 0.49609 2.6367 0.74219 4.0078 0.73437 3.8828 0 7.8125-1.9141 10.031-5.1523v0.003906c1.2148 0.36328 2.4766 0.55469 3.7422 0.55469 3.8281 0 7.2891-1.7188 9.8594-4.1914 0.29297 3.7109 1.8984 7.4414 4.1953 9.9414h0.003907c4.2109 4.5156 11.223 4.9375 15.949 0.96094 1.8828-1.6172 2.9531-3.6914 2.9062-5.6875-0.039063-2.2031-1.3086-3.9062-2.4297-5.4141-0.33984-0.46094-0.66406-0.89063-0.95312-1.332-1.9062-2.9219-2.6797-6.8984-2.4375-12.527 0.0625-1.3008 0.15625-2.6328 0.25781-3.9258 0.25-3.2734 0.5-6.6719 0.10156-10.031-1.0977-9.0078-7.3789-17.316-15.625-20.652-7.7031-3.125-16.969-2.1484-24.805 2.5859-3.4453 2.082-5.2266 4.6484-5.1758 7.4219h-0.003906c0.03125 1.2266 0.40234 2.4219 1.0664 3.457-0.35938 2.375-0.47656 7.0664 1.9531 14.305 0.03125 0.085937 0.078125 0.16797 0.13281 0.24219-0.03125 3.0156 0.11328 5.5469 0.125 5.6875 0.078125 1.1211 0.19531 2.1875 0.33594 3.2109h-0.003906c-0.78125 1.8125-1.9922 3.4141-3.5234 4.6602-0.39062 0.32422-0.83203 0.625-1.2578 0.92969-1.2891 0.90234-2.6094 1.8359-3.4648 3.3203-1.125 1.9688-1.1094 4.5312 0.046875 6.7031 0.99219 1.8359 2.7539 3.3359 4.9648 4.1953zm5.043-28.414-0.003906 0.003906c0.19531 0.14453 0.42969 0.22656 0.67187 0.23047 0.078126-0.003906 0.16016-0.015625 0.23438-0.039062-0.023438 1.5391 0.78125 2.7227 1.9414 2.7852h0.089844c0.64062 0 1.2266-0.35938 1.6328-0.99219l0.003906 0.003906c0.3125-0.52734 0.49219-1.125 0.51953-1.7383 0.007812-0.16797 0.007812-0.33594 0-0.50391 0.5-0.050781 0.90234-0.42578 0.99219-0.92188 0.09375-0.49219-0.15234-0.98828-0.60156-1.2148-0.10937-0.054687-2.6562-1.3125-5.4375 0.53906 0-0.30469 0.019532-0.61328 0.03125-0.92188l0.03125-0.19531c2.0312-2.4805 5.1992-1.6484 5.3438-1.6055 0.60547 0.17188 1.2344-0.17578 1.4062-0.78125 0.17188-0.60156-0.17969-1.2305-0.78125-1.4023-0.14844-0.039063-2.7617-0.76562-5.3203 0.44922 0.43359-1.875 1.0391-3.9062 1.8672-5.5078 2.375-0.67969 4.0078-0.91797 4.8633-0.6875 1.0977 0.28906 2.0586 1.043 3.0781 1.8359 0.48438 0.37109 0.97656 0.75781 1.5078 1.1094h0.003906c2.1797 1.457 4.7773 2.1562 7.3984 1.9922 0.30469-0.023437 0.60547-0.054687 0.91797-0.085937 1-0.10547 1.9375-0.21094 2.6484 0.16016 1.4219 0.72656 1.7461 3.1836 1.4375 5.2969-0.078125 0.55469-0.17969 1.1094-0.28906 1.6719-0.37109 1.9844-0.75781 4.0312-0.17969 6.0898h-0.003906c0.13281 0.47656 0.5625 0.80859 1.0586 0.82422 0.5 0.03125 0.95703-0.28516 1.1055-0.76562 0.94531-2.7109 1.9961-4.0859 3.125-4.0938 0.49219 0 1.0625 0.31641 1.4844 0.82422l-0.003907 0.003906c0.41016 0.46484 0.60156 1.0859 0.51562 1.6992-0.37109 1.7578-1.0234 2.2852-1.8516 2.9297h-0.003906c-0.49609 0.375-0.95313 0.80469-1.3516 1.2812-0.45312 0.55859-0.9375 1.0938-1.4531 1.6562-0.80078 0.82422-1.5352 1.7109-2.2031 2.6484h0.003906c-0.83594 1.2344-1.4023 2.6328-1.6562 4.1016-2.2656 3.1836-7.3984 7.2695-13.805 4.9141h0.003906c-0.015625-0.011719-0.03125-0.023437-0.046875-0.03125l-0.082031-0.023437c-0.61719-0.23438-1.2148-0.51563-1.793-0.83984-5.0469-2.793-6.5547-9.957-6.9297-15.457 0-0.03125-0.13281-2.3906-0.125-5.2383z"/>
<text x="0.0" y="117.5" font-size="5.0" font-weight="bold" font-family="Arbeit Regular, Helvetica, Arial-Unicode, Arial, Sans-serif" fill="#000000">Created by Vector Place</text><text x="0.0" y="122.5" font-size="5.0" font-weight="bold" font-family="Arbeit Regular, Helvetica, Arial-Unicode, Arial, Sans-serif" fill="#000000">from Noun Project</text></svg>