<svg xmlns="http://www.w3.org/2000/svg" version="1.1" viewBox="-5.0 -10.0 110.0 135.0" width="50" height="50">
 <path d="m48.957 59.156c0.0625-4.4258-2.3438-7.5938-6.625-7.2695-0.57422 0.050781-1.082-0.36328-1.1367-0.9375-0.050781-0.57422 0.36328-1.082 0.9375-1.1367 2.668-0.23047 5.1875 0.70703 6.8125 2.6992v-16.406c-0.4375-2.4375-2.3867-4-4.875-3.457-0.57422 0.10547-1.1133-0.26172-1.2188-0.82422-0.10547-0.5625 0.26172-1.1133 0.82422-1.2188 2.0195-0.38672 3.8633 0.050781 5.2695 1.332l0.003907-24.926c-1.793-1.8008-4.668-2.8438-8.3555-2.8438-3.4492 0-6.6367 1.8125-8.5938 4.875-3.832 1.3867-6.5312 5.207-6.7695 9.5625 4.6367-0.23828 8.8242 1.7305 10.875 5.2305 0.29297 0.5 0.125 1.1367-0.375 1.4258-0.48828 0.29297-1.1367 0.125-1.4258-0.375-1.6992-2.8945-5.2617-4.4688-9.2305-4.1758-9.2812 1.7617-15.094 13.156-11.863 22.488-4.8633 4.5938-5.082 13.531-0.53125 18.406 2.4688-2.7812 5.9492-4.5117 8.9492-4.3633 0.57422 0.03125 1.0195 0.51953 0.98828 1.0938-0.03125 0.57422-0.51953 1.0312-1.0938 0.98828-2.4883-0.125-5.3867 1.418-7.4492 3.8555-5.6055 7.832-2.082 20.363 6.957 23.301 2.707 5.6992 8.1992 9.3555 14.125 9.3555 6.4258 0 11.238-2.3125 13.801-6.3438zm-23.195-27.375c0.94922-0.98047 2.4492 0.44922 1.5 1.4375-2.6562 2.5938-2.8242 7.875-0.23828 10.551 3.8867-4.875 11.688-6.0625 16.52-2.2812 0.45703 0.34375 0.55078 1 0.20703 1.457-0.34375 0.45703-1 0.55078-1.457 0.20703-5.0625-3.9805-13.52-1.082-15.449 5.082-0.1875 0.55078-0.79297 0.83203-1.3242 0.64453-1.4883-0.64453-0.16797-2.4062 0.28125-3.375-3.6367-3.332-3.582-10.301-0.050781-13.738zm14.695 46.562c-0.55078 0.09375-1.1055-0.28125-1.1992-0.85547-1.2695-7.9492-12.25-10.957-17.438-4.8125-0.88672 1.0312-2.4688-0.3125-1.582-1.3555 3.625-4.4062 10.793-5.293 15.676-2.0938 2.4375-5-0.25-11.301-5.5625-12.832-1.3008-0.41797-0.70703-2.375 0.61328-1.9883 6.6133 1.8945 9.9883 10 6.6367 16.094 1.9492 1.7383 3.293 4.0625 3.7188 6.6562 0.09375 0.5625-0.29297 1.1055-0.85547 1.1992z"/>
 <path d="m78.395 59.332c-1.3633-0.050781-1.3242-2.1055 0.050781-2.082 4.3008 0.10547 7.4805 2.8867 8.8633 4.3633 4.5508-4.875 4.332-13.812-0.53125-18.406 3.2383-9.3945-2.6445-20.855-12.031-22.531-3.5117-0.40625-7.918 0.48828-10.113 4.2188-0.29297 0.5-0.9375 0.65625-1.4258 0.36328-0.5-0.29297-0.65625-0.92578-0.36328-1.4258 2.6562-4.5 7.793-5.668 11.918-5.25-0.25-4.3438-2.9492-8.1562-6.7695-9.543-1.957-3.0625-5.1445-4.875-8.5938-4.875-3.6992 0-6.5625 1.0312-8.3555 2.8438v12.418c1.4062-1.2812 3.2617-1.7188 5.2695-1.332 0.5625 0.10547 0.9375 0.65625 0.82422 1.2188-0.10547 0.5625-0.64453 0.9375-1.2188 0.82422-2.5-0.54297-4.4492 1.0195-4.875 3.457v36.5c0.9375-1.3633 4.9062-3.543 5.2383-1.1367 0 0.58203-0.5 1.043-1.0742 1.0312-2.582 0.20703-4.1992 3.3555-4.168 5.918v23.574c2.5625 4.0312 7.375 6.3438 13.801 6.3438 5.9258 0 11.418-3.6562 14.125-9.3555 5.7188-1.9688 9.6758-7.793 9.6758-14.355 0.050781-6.1562-3.4492-12.375-10.25-12.801zm-22.156-16.375c-0.34375-0.45703-0.25-1.1133 0.20703-1.457 4.832-3.7812 12.637-2.5938 16.52 2.2812 2.582-2.6875 2.418-7.957-0.23828-10.551-0.39453-0.41797-0.38672-1.0742 0.03125-1.4688 0.41797-0.39453 1.0742-0.38672 1.4688 0.03125 3.5195 3.4375 3.582 10.418-0.050781 13.738 0.51953 0.98828 1.8867 3.1992-0.0625 3.4375-0.4375 0-0.83203-0.26953-0.98828-0.70703-0.8125-2.375-2.5-4.3633-4.7695-5.6133-3.4883-1.9258-7.6758-1.707-10.668 0.53125-0.45703 0.34375-1.1133 0.25-1.457-0.20703zm23.406 29.824c-0.4375 0.375-1.0938 0.32422-1.4688-0.11328-2.375-2.7812-6.3438-3.9375-10.094-2.9375-3.8438 1.0195-6.7305 4.0625-7.3438 7.7617-0.082031 0.51172-0.51953 0.875-1.0312 0.875-0.63672 0-1.1367-0.58203-1.0312-1.207 0.42578-2.5938 1.7695-4.918 3.7188-6.6562-3.3633-6.0938 0.011719-14.199 6.6367-16.094 1.3125-0.375 1.918 1.5625 0.61328 1.9883-5.3008 1.5312-7.9883 7.832-5.5508 12.832 4.8867-3.1875 12.043-2.3125 15.676 2.0938 0.375 0.4375 0.32422 1.0938-0.11328 1.4688z"/>
<text x="0.0" y="117.5" font-size="5.0" font-weight="bold" font-family="Arbeit Regular, Helvetica, Arial-Unicode, Arial, Sans-serif" fill="#000000">Created by Yoyon Pujiyono</text><text x="0.0" y="122.5" font-size="5.0" font-weight="bold" font-family="Arbeit Regular, Helvetica, Arial-Unicode, Arial, Sans-serif" fill="#000000">from Noun Project</text></svg>